<svg width="16" height="17" viewBox="0 0 16 17" fill="none" xmlns="http://www.w3.org/2000/svg">
<path d="M12.25 0.5H3.75C1.67893 0.5 0 2.17893 0 4.25V12.75C0 14.8211 1.67893 16.5 3.75 16.5H12.25C14.3211 16.5 16 14.8211 16 12.75V4.25C16 2.17893 14.3211 0.5 12.25 0.5Z" fill="#F4F2ED"/>
<path d="M14.25 11.9336C14.0681 12.0025 13.8672 12.0024 13.6853 11.9332C13.5034 11.8641 13.3532 11.7307 13.2631 11.5583C12.6966 10.7103 12.0711 9.90065 11.4699 9.07359L11.2093 8.72609C10.4934 9.68521 9.7775 10.6061 9.12419 11.5618C9.03909 11.7265 8.897 11.8548 8.72439 11.9225C8.55177 11.9903 8.3604 11.993 8.18594 11.9302L10.8722 8.32646L8.37356 5.07021C8.55342 5.00528 8.75018 5.00439 8.93063 5.0677C9.11107 5.131 9.26414 5.25463 9.364 5.41771C9.94431 6.26571 10.5873 7.0754 11.2266 7.93378C11.8696 7.08234 12.5055 6.26915 13.0997 5.42815C13.1853 5.26604 13.3275 5.14105 13.4992 5.07697C13.6709 5.01289 13.8602 5.0142 14.0311 5.08065L13.0615 6.36646C12.6271 6.93984 12.1997 7.51671 11.7479 8.07621C11.7115 8.10881 11.6824 8.14871 11.6625 8.19333C11.6425 8.23794 11.6322 8.28625 11.6322 8.33512C11.6322 8.38399 11.6425 8.4323 11.6625 8.47691C11.6824 8.52153 11.7115 8.56143 11.7479 8.59403C12.5785 9.69565 13.4021 10.8007 14.25 11.9336ZM1.75 8.28128C1.823 7.93378 1.86813 7.55496 1.96894 7.20053C2.57013 5.06334 5.02006 4.17365 6.7055 5.49771C7.69244 6.27271 7.93919 7.37084 7.89056 8.60796H2.33037C2.24 10.8182 3.83506 12.1526 5.87494 11.4715C6.20585 11.3531 6.50207 11.1542 6.73687 10.8927C6.97166 10.6312 7.13764 10.3153 7.21981 9.97365C7.32756 9.62615 7.50131 9.56709 7.83144 9.66784C7.77706 10.0909 7.62748 10.4961 7.39394 10.8531C7.16041 11.21 6.849 11.5093 6.48313 11.7286C5.87861 12.0592 5.18502 12.1902 4.50155 12.1028C3.81809 12.0155 3.17976 11.7142 2.67788 11.2421C2.18134 10.6838 1.88111 9.97836 1.823 9.23346C1.823 9.11534 1.77781 8.99715 1.7535 8.88596C1.7512 8.68441 1.75003 8.48284 1.75 8.28128ZM2.33731 8.13184H7.36581C7.3345 6.52984 6.32325 5.39346 4.97494 5.38309C3.47369 5.36221 2.39987 6.47421 2.33381 8.1249L2.33731 8.13184Z" fill="#0F0F0F"/>
</svg>
