<svg width="16" height="17" viewBox="0 0 16 17" fill="none" xmlns="http://www.w3.org/2000/svg">
<path d="M12.25 0.5H3.75C1.67893 0.5 0 2.17893 0 4.25V12.75C0 14.8211 1.67893 16.5 3.75 16.5H12.25C14.3211 16.5 16 14.8211 16 12.75V4.25C16 2.17893 14.3211 0.5 12.25 0.5Z" fill="#023430"/>
<path d="M10.6983 7.22444C10.0397 4.31938 8.66724 3.546 8.31712 2.99931C8.17266 2.75852 8.04476 2.50817 7.9343 2.25C7.9158 2.50813 7.8818 2.67062 7.66243 2.86637C7.22199 3.25906 5.35137 4.78344 5.19393 8.08425C5.04724 11.1619 7.45643 13.0596 7.77468 13.2557C8.01943 13.3762 8.31749 13.2583 8.46293 13.1477C9.62424 12.3507 11.211 10.2259 10.6996 7.22444" fill="#10AA50"/>
<path d="M8.03443 11.6169C7.9738 12.3787 7.93037 12.8213 7.77637 13.2566C7.77637 13.2566 7.87743 13.9818 7.94843 14.75H8.19962C8.25961 14.2091 8.3511 13.6721 8.47362 13.1418C8.14843 12.9818 8.04693 12.2854 8.03443 11.6169Z" fill="#B8C4C2"/>
<path d="M8.47274 13.1422C8.14412 12.9904 8.04906 12.2794 8.03443 11.617C8.11565 10.5243 8.13935 9.4281 8.10543 8.33293C8.08818 7.7583 8.11355 3.01055 7.96387 2.31543C8.06621 2.55089 8.1842 2.77924 8.31706 2.99893C8.66718 3.54605 10.0401 4.31943 10.6982 7.22449C11.2109 10.2208 9.63281 12.3401 8.47274 13.1422Z" fill="#12924F"/>
</svg>
