<svg width="16" height="17" viewBox="0 0 16 17" fill="none" xmlns="http://www.w3.org/2000/svg">
<path d="M12.25 0.5H3.75C1.67893 0.5 0 2.17893 0 4.25V12.75C0 14.8211 1.67893 16.5 3.75 16.5H12.25C14.3211 16.5 16 14.8211 16 12.75V4.25C16 2.17893 14.3211 0.5 12.25 0.5Z" fill="#242938"/>
<path d="M7.59062 2.2533C7.56375 2.25573 7.47819 2.2643 7.40119 2.27036C5.62581 2.43042 3.96281 3.38842 2.9095 4.8608C2.32306 5.67948 1.94788 6.60811 1.80619 7.5918C1.75613 7.93517 1.75 8.03661 1.75 8.50211C1.75 8.96767 1.75612 9.06911 1.80625 9.41242C2.14587 11.7597 3.81625 13.7319 6.08162 14.4625C6.48731 14.5933 6.91494 14.6825 7.40125 14.7362C7.59069 14.757 8.40931 14.757 8.59875 14.7362C9.43819 14.6434 10.1493 14.4357 10.8507 14.0776C10.9582 14.0227 10.979 14.008 10.9643 13.9958C10.9546 13.9884 10.4963 13.3738 9.9465 12.6309L8.947 11.2807L7.6945 9.42711C7.00537 8.40805 6.43844 7.57467 6.4335 7.57467C6.42862 7.57348 6.42375 8.39705 6.42131 9.40267C6.41762 11.1634 6.41644 11.2343 6.39444 11.2758C6.36269 11.3357 6.33825 11.3601 6.28688 11.387C6.24781 11.4065 6.21356 11.4102 6.02906 11.4102H5.81769L5.76144 11.3748C5.72661 11.353 5.69832 11.3222 5.67956 11.2856L5.65394 11.2306L5.65644 8.78073L5.66006 6.32961L5.69794 6.28192C5.7175 6.2563 5.75906 6.2233 5.78837 6.20742C5.83844 6.18298 5.858 6.18055 6.06938 6.18055C6.31869 6.18055 6.36019 6.1903 6.425 6.26117C6.44331 6.28073 7.12144 7.30223 7.93281 8.53267C8.75423 9.77811 9.57615 11.0232 10.3986 12.268L11.3883 13.7673L11.4384 13.7343C11.8819 13.4459 12.3512 13.0354 12.7226 12.6077C13.5132 11.6998 14.0228 10.5928 14.1938 9.41242C14.2439 9.06911 14.25 8.96767 14.25 8.50211C14.25 8.03655 14.2439 7.93517 14.1938 7.5918C13.8541 5.24455 12.1838 3.27242 9.91838 2.54173C9.51881 2.41217 9.09362 2.32298 8.61706 2.26923C8.49975 2.25698 7.69206 2.24361 7.59069 2.25336M10.1493 6.03392C10.2079 6.06323 10.2556 6.11942 10.2728 6.17805C10.2825 6.20986 10.2849 6.88923 10.2825 8.42023L10.2788 10.6172L9.8915 10.0234L9.50294 9.42955V7.83255C9.50294 6.80005 9.50781 6.21961 9.51512 6.19148C9.53469 6.12311 9.57744 6.06936 9.63613 6.03755C9.68619 6.01192 9.70456 6.00942 9.89638 6.00942C10.0773 6.00942 10.109 6.01192 10.1493 6.03392Z" fill="white"/>
</svg>
