<svg width="16" height="17" viewBox="0 0 16 17" fill="none" xmlns="http://www.w3.org/2000/svg">
<path d="M8.36945 0.603081C8.25463 0.537296 8.1246 0.502686 7.99227 0.502686C7.85993 0.502686 7.7299 0.537296 7.61508 0.603081L1.38758 4.21996C1.1507 4.35396 1.01758 4.60683 1.01758 4.87496V12.1235C1.01758 12.3913 1.16545 12.6443 1.38733 12.7785L7.61483 16.3952C7.72967 16.461 7.85972 16.4956 7.99208 16.4956C8.12443 16.4956 8.25449 16.461 8.36933 16.3952L14.5968 12.7783C14.8336 12.6443 14.9666 12.3913 14.9666 12.1233V4.87496C14.9666 4.60696 14.8187 4.35408 14.5968 4.21996L8.36945 0.603081Z" fill="url(#paint0_linear_2559_539)"/>
<path d="M14.6122 4.22006L8.35524 0.603184C8.29385 0.571828 8.22938 0.546903 8.16287 0.528809L1.15137 12.5998C1.20945 12.671 1.27955 12.7315 1.35849 12.7786L7.61562 16.3953C7.79312 16.4994 8.00012 16.5293 8.19249 16.4697L14.775 4.35406C14.7318 4.29746 14.6761 4.2516 14.6122 4.22006Z" fill="url(#paint1_linear_2559_539)"/>
<path d="M14.6119 12.7782C14.7894 12.674 14.9226 12.4954 14.9817 12.3019L8.13295 0.513532C7.95545 0.483782 7.76307 0.498657 7.60045 0.602907L1.3877 4.20491L8.08845 16.4993C8.1772 16.4843 8.28095 16.4545 8.3697 16.4099L14.6119 12.7782Z" fill="url(#paint2_linear_2559_539)"/>
<defs>
<linearGradient id="paint0_linear_2559_539" x1="10.5283" y1="3.29652" x2="4.84099" y2="14.8266" gradientUnits="userSpaceOnUse">
<stop stop-color="#3F873F"/>
<stop offset="0.33" stop-color="#3F8B3D"/>
<stop offset="0.637" stop-color="#3E9638"/>
<stop offset="0.934" stop-color="#3DA92E"/>
<stop offset="1" stop-color="#3DAE2B"/>
</linearGradient>
<linearGradient id="paint1_linear_2559_539" x1="7.04644" y1="9.34578" x2="22.9146" y2="-2.30642" gradientUnits="userSpaceOnUse">
<stop offset="0.138" stop-color="#3F873F"/>
<stop offset="0.402" stop-color="#52A044"/>
<stop offset="0.713" stop-color="#64B749"/>
<stop offset="0.908" stop-color="#6ABF4B"/>
</linearGradient>
<linearGradient id="paint2_linear_2559_539" x1="0.789656" y1="8.49683" x2="15.1997" y2="8.49683" gradientUnits="userSpaceOnUse">
<stop offset="0.092" stop-color="#6ABF4B"/>
<stop offset="0.287" stop-color="#64B749"/>
<stop offset="0.598" stop-color="#52A044"/>
<stop offset="0.862" stop-color="#3F873F"/>
</linearGradient>
</defs>
</svg>
